<svg width="24" height="25" viewBox="0 0 24 25" fill="none" xmlns="http://www.w3.org/2000/svg">
<path d="M11.9424 21.4893L12.375 21.5C12.1697 21.5 11.9663 21.4897 11.7646 21.4756C11.8238 21.4797 11.8829 21.4863 11.9424 21.4893ZM12.375 4.25C17.1384 4.25 21 8.11155 21 12.875C21 17.2587 17.7292 20.8755 13.4951 21.4248V14.7656H15.373L15.6221 12.4209H13.4951L13.498 11.2471C13.4981 10.6357 13.5566 10.3077 14.4346 10.3076H15.6094V7.96289H13.7305C11.4741 7.96298 10.6797 9.10071 10.6797 11.0137V12.4209H9.27344V14.7656H10.6797V21.332C6.72818 20.5443 3.75 17.0581 3.75 12.875C3.75 8.11155 7.61155 4.25 12.375 4.25Z" fill="white"/>
</svg>
