<svg width="24" height="25" viewBox="0 0 24 25" fill="none" xmlns="http://www.w3.org/2000/svg">
<g clip-path="url(#clip0_1_312)">
<path d="M3.75 6.16482C3.75 5.60979 3.94426 5.15189 4.33277 4.79114C4.72128 4.43038 5.22636 4.25 5.84797 4.25C6.4585 4.25 6.95246 4.42759 7.32987 4.78282C7.71838 5.14913 7.91264 5.62644 7.91264 6.21477C7.91264 6.74759 7.72394 7.19159 7.34652 7.54681C6.95802 7.91313 6.44739 8.09628 5.81467 8.09628H5.79802C5.18749 8.09628 4.69354 7.91313 4.31612 7.54681C3.9387 7.1805 3.75 6.71983 3.75 6.16482ZM3.96646 20.7341V9.61148H7.66289V20.7341H3.96646ZM9.71091 20.7341H13.4073V14.5234C13.4073 14.1349 13.4517 13.8352 13.5405 13.6243C13.6959 13.2469 13.9318 12.9277 14.2482 12.6669C14.5646 12.406 14.9614 12.2756 15.4387 12.2756C16.682 12.2756 17.3036 13.1136 17.3036 14.7898V20.7341H21V14.3569C21 12.714 20.6115 11.468 19.8345 10.6188C19.0574 9.76966 18.0307 9.34507 16.7541 9.34507C15.3222 9.34507 14.2066 9.96114 13.4073 11.1933V11.2266H13.3907L13.4073 11.1933V9.61148H9.71091C9.7331 9.96669 9.74421 11.0712 9.74421 12.9249C9.74421 14.7787 9.7331 17.3817 9.71091 20.7341Z" fill="white"/>
</g>
<defs>
<clipPath id="clip0_1_312">
<rect width="17.25" height="16.4841" fill="white" transform="translate(3.75 4.25)"/>
</clipPath>
</defs>
</svg>
