<svg width="36" height="37" viewBox="0 0 36 37" fill="none" xmlns="http://www.w3.org/2000/svg">
<circle cx="18" cy="18.1429" r="18" fill="#F16F4F"/>
<path d="M23.5271 22.3782L27.4286 24.3495C26.4777 25.5856 25.2681 26.5744 23.7998 27.3161C22.3454 28.0578 20.7653 28.4286 19.0593 28.4286C17.1295 28.4286 15.3675 27.9667 13.7734 27.0429C12.1932 26.119 10.9277 24.8829 9.97678 23.3345C9.03987 21.7731 8.57141 20.0491 8.57141 18.1624C8.57141 16.7311 8.8441 15.3974 9.38946 14.1613C9.93483 12.9122 10.683 11.8192 11.6339 10.8824C12.5987 9.93254 13.7174 9.19087 14.99 8.65739C16.2625 8.12392 17.6189 7.85718 19.0593 7.85718C20.7653 7.85718 22.3454 8.22801 23.7998 8.96967C25.2681 9.71134 26.4777 10.7067 27.4286 11.9558L23.5271 13.9271C22.9398 13.2765 22.2545 12.7821 21.4715 12.4438C20.6884 12.0925 19.8843 11.9168 19.0593 11.9168C17.9126 11.9168 16.8708 12.2096 15.9339 12.7951C15.0109 13.3676 14.2768 14.1288 13.7314 15.0786C13.2 16.0155 12.9344 17.0434 12.9344 18.1624C12.9344 19.2684 13.207 20.2963 13.7524 21.2462C14.2978 22.183 15.0319 22.9377 15.9549 23.5102C16.8918 24.0827 17.9266 24.369 19.0593 24.369C19.9263 24.369 20.7513 24.1868 21.5344 23.8225C22.3175 23.4582 22.9817 22.9767 23.5271 22.3782Z" fill="white"/>
</svg>
