<svg width="24" height="25" viewBox="0 0 24 25" fill="none" xmlns="http://www.w3.org/2000/svg">
<g clip-path="url(#clip0_1_304)">
<path d="M9.50046 12.875C9.50046 11.2872 10.7872 9.99977 12.375 9.99977C13.9628 9.99977 15.2502 11.2872 15.2502 12.875C15.2502 14.4628 13.9628 15.7502 12.375 15.7502C10.7872 15.7502 9.50046 14.4628 9.50046 12.875ZM7.94615 12.875C7.94615 15.3211 9.92893 17.3038 12.375 17.3038C14.8211 17.3038 16.8038 15.3211 16.8038 12.875C16.8038 10.4289 14.8211 8.44615 12.375 8.44615C9.92893 8.44615 7.94615 10.4289 7.94615 12.875ZM15.9441 8.27059C15.9441 8.84187 16.4074 9.30587 16.9794 9.30587C17.5507 9.30587 18.0147 8.84187 18.0147 8.27059C18.0147 7.6993 17.5514 7.23601 16.9794 7.23601C16.4074 7.23601 15.9441 7.6993 15.9441 8.27059ZM8.89017 19.8955C8.04926 19.8572 7.59224 19.7172 7.28848 19.5987C6.88579 19.442 6.59876 19.2553 6.2964 18.9536C5.99473 18.6519 5.80732 18.3649 5.65126 17.9622C5.53283 17.6585 5.39279 17.2014 5.35447 16.3605C5.31267 15.4514 5.30431 15.1783 5.30431 12.875C5.30431 10.5717 5.31337 10.2993 5.35447 9.38947C5.39279 8.54857 5.53352 8.09224 5.65126 7.78778C5.80802 7.3851 5.99473 7.09806 6.2964 6.7957C6.59806 6.49403 6.8851 6.30662 7.28848 6.15057C7.59224 6.03213 8.04926 5.89209 8.89017 5.85378C9.79934 5.81197 10.0724 5.80361 12.375 5.80361C14.6783 5.80361 14.9507 5.81267 15.8605 5.85378C16.7014 5.89209 17.1578 6.03282 17.4622 6.15057C17.8649 6.30662 18.1519 6.49403 18.4543 6.7957C18.756 7.09736 18.9427 7.3851 19.0994 7.78778C19.2179 8.09154 19.3579 8.54857 19.3962 9.38947C19.438 10.2993 19.4464 10.5717 19.4464 12.875C19.4464 15.1776 19.438 15.4507 19.3962 16.3605C19.3579 17.2014 19.2172 17.6585 19.0994 17.9622C18.9427 18.3649 18.756 18.6519 18.4543 18.9536C18.1526 19.2553 17.8649 19.442 17.4622 19.5987C17.1585 19.7172 16.7014 19.8572 15.8605 19.8955C14.9514 19.9373 14.6783 19.9457 12.375 19.9457C10.0724 19.9457 9.79934 19.9373 8.89017 19.8955ZM8.8191 4.30225C7.90087 4.34405 7.27385 4.48966 6.72556 4.70285C6.15845 4.923 5.67774 5.2184 5.19772 5.69772C4.7184 6.17704 4.423 6.65775 4.20285 7.22556C3.98966 7.77385 3.84405 8.40087 3.80225 9.3191C3.75975 10.2387 3.75 10.5327 3.75 12.875C3.75 15.2173 3.75975 15.5113 3.80225 16.4309C3.84405 17.3491 3.98966 17.9762 4.20285 18.5244C4.423 19.0915 4.7177 19.573 5.19772 20.0523C5.67704 20.5316 6.15775 20.8263 6.72556 21.0472C7.27455 21.2603 7.90087 21.4059 8.8191 21.4477C9.73943 21.4895 10.0327 21.5 12.375 21.5C14.718 21.5 15.0113 21.4902 15.9309 21.4477C16.8491 21.4059 17.4762 21.2603 18.0244 21.0472C18.5915 20.8263 19.0723 20.5316 19.5523 20.0523C20.0316 19.573 20.3263 19.0915 20.5472 18.5244C20.7603 17.9762 20.9066 17.3491 20.9478 16.4309C20.9895 15.5106 20.9993 15.2173 20.9993 12.875C20.9993 10.5327 20.9895 10.2387 20.9478 9.3191C20.9059 8.40087 20.7603 7.77385 20.5472 7.22556C20.3263 6.65845 20.0316 6.17774 19.5523 5.69772C19.073 5.2184 18.5915 4.923 18.0251 4.70285C17.4762 4.48966 16.8491 4.34336 15.9316 4.30225C15.012 4.26045 14.718 4.25 12.3757 4.25C10.0327 4.25 9.73943 4.25975 8.8191 4.30225Z" fill="white"/>
</g>
<defs>
<clipPath id="clip0_1_304">
<rect width="17.25" height="17.25" fill="white" transform="translate(3.75 4.25)"/>
</clipPath>
</defs>
</svg>
